<?xml version="1.0" encoding="utf-8"?>
<!-- Generator: Adobe Illustrator 22.0.0, SVG Export Plug-In . SVG Version: 6.00 Build 0)  -->
<svg version="1.1" id="图层_1" xmlns="http://www.w3.org/2000/svg" xmlns:xlink="http://www.w3.org/1999/xlink" x="0px" y="0px"
	 viewBox="0 0 144 144" style="enable-background:new 0 0 144 144;" xml:space="preserve">
<style type="text/css">
	.st0{fill:#5C5C5C;}
	.st1{fill:#1BBE8D;}
</style>
<g>
	<g>
		<g>
			<g>
				<path class="st0" d="M137.3,69.8"/>
			</g>
			<g>
				<g>
					<path class="st0" d="M27.5,69.9c-3.7,0-6.7,3-6.7,6.7V114c0,13.1,10.6,23.7,23.7,23.7h55c13.1,0,23.7-10.6,23.7-23.7V76.6
						c0-3.7-3-6.7-6.7-6.7s-6.7,3-6.7,6.7V114c0,5.7-4.6,10.4-10.4,10.4h-55c-5.7,0-10.4-4.6-10.4-10.4V76.6
						C34.1,72.9,31.2,69.9,27.5,69.9z M62.8,9.1L2.9,56.9c-3,2.1-3.8,6.2-1.7,9.3c1,1.5,2.5,2.5,4.3,2.8c1.7,0.3,3.5,0,5-1
						l59.9-47.8c1-0.7,2.4-0.7,3.4,0l59.9,47.8c1.1,0.7,2.4,1.2,3.7,1.2l0,0l0,0c2.2,0,4.3-1.1,5.5-2.9c2.1-3,1.3-7.2-1.7-9.3l0,0
						L81.2,9.1c-2.7-1.8-5.9-2.8-9.2-2.8C68.7,6.3,65.5,7.2,62.8,9.1z"/>
				</g>
			</g>
		</g>
	</g>
	<path class="st1" d="M85.9,101.2H58.1c-0.4,0-0.7-0.3-0.7-0.7V72.6c0-0.4,0.3-0.7,0.7-0.7h27.8c0.4,0,0.7,0.3,0.7,0.7v27.8
		C86.6,100.8,86.3,101.2,85.9,101.2L85.9,101.2z"/>
</g>
</svg>
